<svg width="98" height="134" viewBox="0 0 98 134" fill="none" xmlns="http://www.w3.org/2000/svg">
<rect width="98" height="134" fill="#1E1E1E"/>
<path d="M36.3068 109.935C34.9042 110.053 33.3492 110.02 31.7704 109.796C29.2058 109.426 26.6388 109.146 24.3513 109.001C23.1676 108.903 23.8058 108.823 22.8708 108.696C22.5615 108.647 22.2239 108.579 21.8836 108.48C20.2846 107.995 19.2039 107.323 18.2643 106.863C17.9007 106.683 18.4468 106.687 18.0623 106.508C17.8995 106.434 17.7419 106.369 17.5887 106.315C16.0635 105.786 14.5393 105.315 13.0012 104.827C11.6744 104.399 10.7818 103.613 10.1271 103.181C10.0159 103.106 9.91378 103.041 9.82443 102.99C8.36037 102.042 8.18797 101.067 7.86212 100.254C7.59277 99.4208 7.45015 98.632 7.35921 97.8347C7.19339 96.3183 6.97033 94.785 6.75499 93.2229C6.50852 91.3761 6.46766 89.6185 6.28704 88.0177C6.11636 86.4311 5.50863 84.7114 5.10201 82.8088C5.02585 81.887 3.76532 81.2415 2.88616 78.8444C1.73416 75.0802 1.90263 71.2799 1.7949 67.6084C1.8002 66.2475 1.54644 64.7056 1.52894 63.1242C1.51281 62.5217 1.50494 61.9302 1.49902 61.3353C1.47778 59.1692 1.52313 56.7984 1.52959 54.4182C1.54175 52.4723 1.44305 50.58 1.32838 48.628C1.28658 47.8211 1.22448 46.9873 1.1645 46.1937C1.12133 45.6282 0.957275 45.9768 0.935799 45.8699C0.608237 44.1908 1.01127 44.7323 1.00546 43.6246C0.999822 41.9652 0.988596 40.2345 0.989368 38.4964C0.967055 36.6493 0.738097 34.4892 0.714051 32.562C0.690711 31.7479 0.670114 30.9461 0.648988 30.1679C0.602395 28.3754 0.250538 30.1772 0.443577 28.369C0.456754 28.244 0.654953 28.6963 0.673093 28.2063C0.713019 27.0918 0.676458 24.9788 0.695032 24.1156C0.731313 22.4529 0.730649 22.1767 0.747992 20.6012C0.756743 19.9234 0.777013 19.1989 0.804415 18.4617C0.8698 16.8251 1.01015 15.0614 1.44799 13.3877C1.59359 12.8671 1.18251 13.4982 1.42185 12.6551C1.57259 12.1091 2.05434 11.0809 2.40109 10.3623C2.65365 9.81942 2.94653 9.39753 3.12458 9.16856C3.62581 8.54989 3.55528 8.92795 3.66581 8.83738C4.34896 8.30928 5.29549 7.06247 5.80125 6.37123C5.98414 6.12648 6.12248 5.9527 6.17781 5.8946C7.4256 4.64104 8.58083 3.60631 10.1778 2.7004C11.3031 2.12201 12.5889 1.40245 14.1532 1.24018C15.2713 1.02883 16.6164 1.01532 17.7953 0.995147C18.9778 0.981471 20.1575 0.980886 21.3645 0.971471C23.8267 0.954104 26.3866 0.92535 28.8886 0.933752C30.4925 0.940763 32.0785 0.992829 33.5946 1.14115C34.3903 1.21666 35.1475 1.32025 35.844 1.37864C38.022 1.58875 39.9117 2.12341 41.7686 2.54392C43.1508 2.85489 44.638 2.91312 46.3116 3.14975C46.668 3.2037 46.4774 3.04583 46.5847 2.99319C46.6169 2.97286 46.6787 2.96603 46.804 2.98153C48.0648 3.14237 49.7259 2.82981 51.3728 2.77934C54.3241 2.67198 57.1806 2.76563 60.0147 2.7716C61.5559 2.79106 62.9901 2.64375 64.6353 2.55261C65.2589 2.52623 64.4716 2.78603 65.0925 2.77457C65.2295 2.77253 65.3701 2.77133 65.516 2.77089C68.0721 2.78337 71.3602 3.05353 73.9254 3.0115C75.1808 2.99369 76.2649 2.93684 77.0087 2.73836C78.003 2.85684 79.1455 3.10245 80.0543 3.22461C81.7179 3.4153 83.3881 3.67052 84.7518 4.03212C86.1953 4.4427 84.7287 4.3395 86.5341 4.68108C86.9401 4.77206 86.4714 4.43247 87.0787 4.59075C87.1997 4.62331 87.3195 4.65696 87.4379 4.69112C88.7355 5.06722 89.9643 5.65976 91.1267 6.13089C92.6555 6.69272 93.3899 8.28885 93.8551 9.13427C93.8651 9.15194 93.8749 9.16965 93.8846 9.1874C94.1808 9.77529 94.254 9.54728 94.3521 9.7064C95.0802 11.0892 94.8636 13.0707 94.968 13.4552C94.9846 13.5582 95.0025 13.6592 95.0217 13.7568C95.3284 15.1813 95.8056 16.6199 95.8876 18.0855C96.0076 19.1561 96.0232 20.2811 96.0487 21.4195C96.0546 21.7587 96.0589 22.1026 96.0616 22.4556C96.0668 23.1807 96.297 22.3214 96.3101 23.0191C96.3648 26.0624 96.3543 29.1991 96.3566 32.194C96.3585 32.7542 96.3666 33.3049 96.3825 33.8517C96.4078 34.6202 96.1596 33.9281 96.1625 34.2966C96.1931 35.933 96.6339 36.2173 96.7567 37.8172C96.7823 38.1593 96.5862 37.9887 96.575 38.053C96.4936 38.5133 96.5484 38.9333 96.6267 39.2871C96.7165 39.635 96.8938 39.8812 96.92 39.998C97.2357 41.2459 97.5992 42.5213 97.6347 43.7787C97.6616 45.2387 97.5585 46.5367 97.6161 48.1778C97.6275 48.5391 97.8396 47.7209 97.8573 48.7384C97.8739 49.7651 97.8785 50.803 97.8726 51.8452C97.8494 54.5348 97.1572 57.0561 96.6051 59.5195C96.2136 61.1873 95.8011 62.8476 95.1664 64.492C94.6065 65.9311 94.1511 67.4592 93.7093 68.9519C93.4212 69.9415 93.4485 69.1893 93.4124 69.2461C93.2536 69.5069 93.1576 69.7547 93.1002 69.9833C92.9509 70.5801 93.0853 71.0394 93.0484 71.2743C92.8568 72.4361 92.6892 73.5583 92.5196 74.657C92.313 75.9513 92.1878 77.133 92.354 78.1442C92.264 78.8479 92.1801 79.5531 92.099 80.2615C91.7234 83.4132 91.5101 86.4968 91.2431 89.707C91.1475 91.1618 90.3036 92.5899 90.2014 93.4637C89.9257 95.0539 89.0883 95.8239 89.0015 96.6642C88.2978 99.0304 86.413 99.5135 85.7128 100.566C84.8137 101.813 83.484 102.359 82.7584 103.05C81.4786 104.174 80.1188 104.587 78.7851 105.086C78.0618 105.344 77.3104 105.451 76.5839 105.47C76.434 105.474 76.6867 105.25 76.3924 105.256C74.0245 105.194 73.5657 105.163 72.9329 105.454C72.5962 105.593 72.2004 105.763 71.5078 105.998C70.9765 106.181 69.1629 105.981 68.9973 105.952C68.4089 105.886 68.9705 105.512 68.7765 105.507C68.3202 105.498 68.03 105.555 67.7723 105.643C67.1567 105.822 66.7884 106.453 65.1394 105.973C65.0712 105.949 65.4206 105.864 65.242 105.786C64.9677 105.665 64.6197 105.525 64.5423 105.519C64.4394 105.506 64.3417 105.52 64.1758 105.562C63.3304 105.881 62.6043 106.057 61.6177 107.623C61.5465 107.736 61.724 107.819 61.6787 108.111C61.654 108.337 61.4932 108.668 61.0363 109.296C60.6877 109.723 59.6698 111.536 59.2849 112.75C59.1497 113.135 59.0019 113.43 58.8989 113.618C58.3751 114.502 58.55 113.787 58.508 113.851C56.8307 115.907 57.27 114.984 56.1535 115.611C56.0217 115.671 55.9142 115.726 55.8278 115.778C55.1264 116.212 55.7407 116.616 55.4759 116.961C55.2664 117.231 54.5798 117.802 54.2692 118.364C54.1038 118.652 53.9535 118.882 53.8729 118.999C53.6127 119.373 53.7495 118.817 53.5389 119.157C52.1262 121.4 53.4091 120.39 53.1438 121.229C52.8246 122.234 52.3367 123.015 51.8463 123.765C51.3732 124.489 50.8977 125.229 50.4318 126.045C50.1673 126.492 50.5057 126.193 50.2815 126.606C50.2075 126.738 50.1312 126.863 50.0527 126.983C49.2393 128.147 49.0958 129.261 47.7621 130.756C47.7242 130.795 47.6867 130.832 47.6475 130.871C47.4625 131.158 45.9979 132.417 44.9372 132.504C44.8212 132.521 44.9832 132.332 44.7382 132.375C44.6789 132.383 44.5871 132.412 44.4476 132.488C44.0939 132.675 43.6441 133.013 43.0753 133.293C42.9353 133.356 42.7061 133.459 42.4404 133.304C42.2041 133.136 42.1802 132.938 42.1466 132.788C42.0982 132.486 42.1212 132.216 42.1445 131.96C42.1976 131.447 42.2903 130.985 42.363 130.6C42.5507 129.697 42.0183 130.653 42.4114 129.548C42.5973 129.063 42.4644 130.023 42.807 129.115C42.8692 128.958 42.9449 128.754 43.0442 128.525C43.4839 127.468 44.3531 125.89 44.7969 125.26C45.3227 124.493 44.8704 124.793 44.9008 124.724C44.9191 124.686 44.9437 124.64 44.9738 124.587C45.2944 124.124 45.6229 122.861 45.6187 122.719C45.6907 122.374 45.7372 122.015 45.7737 121.646C45.8873 120.319 46.4889 119.124 46.9129 118.107C47.4355 116.808 47.7771 115.401 48.3966 114.021C49.4531 111.64 49.3274 108.812 50.4112 106.073C50.9184 104.972 51.5022 103.725 51.4603 102.685C51.4378 102.535 51.3807 102.495 51.3201 102.487C51.1104 102.457 50.898 102.489 50.6785 102.572C50.2215 102.775 50.6226 102.837 50.5539 102.87C49.8475 103.319 49.6834 103.386 49.565 103.264C49.4453 103.165 49.3582 102.978 48.7516 103.376C49.1766 103.557 48.5564 104.097 47.3581 105.017C46.7574 105.436 47.1754 105.361 47.1301 105.412C46.9842 105.554 46.8291 105.671 46.6727 105.764C45.9385 106.196 45.3174 106.098 45.1559 106.089C44.4097 106.032 43.7189 106.432 43.2248 106.334C42.7389 106.233 43.7685 105.855 42.3951 106.033C42.0252 106.233 43.1042 106.515 42.0564 106.703C41.6985 106.766 41.312 106.824 40.9028 106.879C37.8234 107.375 33.4918 106.643 30.4105 106.081C29.2534 105.901 28.2272 105.79 27.4477 105.727C24.4303 105.454 23.447 105.719 21.5552 105.151C21.4712 105.108 21.3857 105.064 21.2982 105.019C18.331 103.513 19.2791 104.282 17.3873 103.598C17.3751 103.593 17.3628 103.589 17.3503 103.585C15.4582 102.981 16.5855 102.657 16.3608 102.398C16.1221 102.157 15.7642 102.23 15.4206 102.071C15.0703 101.916 15.8928 101.956 15.024 101.768C14.8796 101.74 14.6916 101.717 14.4774 101.703C13.4756 101.751 12.0132 100.967 11.7627 100.813C11.1634 100.579 11.3649 101.41 10.5518 100.262C10.4354 100.08 10.2985 99.8387 10.1662 99.523C10.1126 99.3899 10.4821 99.7247 10.2732 99.2233C9.51145 97.0871 9.5601 94.9236 9.47169 92.7782C9.4566 91.4181 9.23822 90.0921 9.07573 88.7273C9.02139 88.1977 8.91827 87.6752 8.76548 87.1679C8.60204 86.6547 8.97032 87.0347 8.87017 86.7305C8.57132 85.8782 8.25554 85.3879 8.02812 85.0725C7.37468 84.228 7.31774 84.6179 6.26509 83.7805C6.81565 83.7568 6.62959 83.1394 5.83772 81.8766C5.6608 81.5795 5.50659 81.1985 5.3705 80.73C5.00733 79.3133 4.87255 79.5747 4.49195 78.6642C4.42346 78.4982 4.3624 78.0407 4.26693 77.6724C4.20482 77.4302 4.15251 77.2238 4.09177 77.1587C3.64383 76.6035 3.25434 77.7063 3.2067 74.9649C3.2103 74.8481 3.42116 75.2113 3.41959 74.8095C3.43689 73.3552 3.33195 72.6632 3.12937 71.8672C2.97026 71.2305 2.79605 70.5208 2.59313 69.3526C2.41004 68.3189 2.21491 66.8528 1.93295 65.4181C1.61156 63.8791 1.3611 62.2914 1.16218 61.0554C1.76083 60.9982 1.24627 58.7451 0.72782 57.851C0.706841 57.6651 0.686037 57.4775 0.665708 57.288C0.508636 55.847 0.435608 54.2978 0.60201 52.9121C0.669479 52.3711 0.812877 52.7449 0.837705 52.6778C1.2327 51.6835 0.984906 50.9415 1.04662 50.5874C1.32569 49.0339 1.90912 47.7089 2.1848 46.4134C2.5875 44.5205 2.69283 42.624 2.38409 40.5747C2.36826 40.4451 1.92505 40.3005 2.18476 39.2838C2.19341 39.2511 2.25517 39.5319 2.31171 39.6119C2.37906 39.6788 2.37408 39.6494 2.42596 38.7704C2.43086 38.7373 2.43588 38.7011 2.44102 38.6613C2.64064 37.0363 3.01953 33.8825 2.95369 31.5572C2.93742 30.9949 2.67225 29.5529 3.00906 28.4281C3.05457 28.2796 3.16487 28.4524 3.2457 28.2361C3.31361 28.0553 3.33651 27.8863 3.34025 27.7339C3.35207 27.2956 3.22237 26.9054 3.54911 26.3192C3.93975 25.6085 4.39636 24.1736 4.39144 22.1594C4.3906 21.9327 4.38466 21.6988 4.37261 21.4583C4.36906 21.3829 4.0657 20.8105 4.09552 20.0771C4.14664 18.9063 4.21167 17.2326 4.03429 16.0143C4.03397 16.012 4.03366 16.0098 4.03334 16.0076C3.9544 15.4315 3.79741 15.8295 3.7803 15.7286C3.25615 12.5706 3.83646 10.0223 4.76589 7.20406C4.94777 6.44869 5.42601 5.70609 6.15661 5.24143C6.3981 5.06937 6.83277 4.79562 7.29763 4.44592C8.09836 3.81167 9.33187 3.48129 10.2555 3.38724C10.5698 3.35521 10.7747 3.37719 10.9272 3.42727C11.5887 3.71607 11.12 4.1777 13.9673 3.9066C14.569 3.87132 15.2686 3.6605 16.0758 3.47589C17.2779 3.21152 18.5259 2.8648 20.1917 2.75185C20.5345 2.63572 20.8698 2.51387 21.2037 2.41189C22.8034 1.87993 24.4443 2.1336 26.1395 1.89442C27.2534 1.55393 28.3098 1.3857 29.4428 1.34716C31.4598 1.26396 33.4841 1.18469 35.5782 1.17617C35.8101 1.1745 36.5996 0.852562 37.169 0.922696C38.0152 1.02814 38.4459 1.28493 39.0192 1.45548C39.4694 1.59113 39.8946 1.77597 40.3114 1.95428C41.4477 2.44268 42.5265 2.96634 43.6733 3.30342C44.3741 3.51674 45.0714 3.75184 45.7712 4.00954C46.6336 4.32909 46.2715 4.38415 47.2962 4.77174C48.3185 5.16151 49.0859 5.20078 50.4299 5.84151C50.475 5.86306 50.5191 5.88508 50.5623 5.90751C51.5192 6.40136 52.3828 7.19761 53.7117 7.73083C53.84 7.47504 54.2446 7.50682 54.9367 7.67575C55.3861 7.78572 55.9612 7.93176 56.6631 8.06765C57.0061 8.13308 56.6861 7.88094 56.8503 7.90359C57.518 7.99093 58.089 8.26296 58.7306 8.31031C58.8866 8.32195 58.9269 8.16733 59.0561 8.1675C59.8007 8.1649 60.806 8.47622 61.4707 8.7028C61.7844 8.81024 62.0156 8.89533 62.1097 8.9294C63.2271 9.32516 63.7937 9.15158 64.6759 9.26005C65.569 9.3499 64.2263 9.47867 65.2808 9.52114C67.2323 9.61001 69.5973 8.9666 71.6102 8.7499C71.8802 8.71995 72.1398 8.69288 72.3917 8.66849C73.2654 8.58562 72.6495 8.43138 72.774 8.41457C74.5799 8.18218 76.4357 8.35524 77.4118 7.87157C77.9533 8.28977 78.2678 8.31564 78.5941 8.16595C79.055 7.94634 79.4351 7.4268 80.8613 6.88207C81.0554 6.811 81.5082 7.17002 80.8332 7.57318C80.3196 7.87193 79.5449 8.18988 78.6591 8.42807C78.3487 8.50694 78.0581 8.55068 77.7767 8.60517C77.5046 8.66561 76.0415 9.21089 75.8474 9.25163C74.3065 9.56042 74.0359 8.81825 73.9476 8.7791C73.313 8.52639 72.3523 8.73227 71.6319 8.94321C71.2503 9.0554 70.9403 9.17413 70.7817 9.21061C68.7137 9.70719 66.8161 10.0435 64.9097 10.1487C63.6683 10.2138 63.5086 10.6965 62.5123 10.5771C62.0211 10.5109 61.5874 10.4209 61.1867 10.3195C59.0029 9.73887 57.9889 9.11927 55.3641 8.91279C54.93 8.8671 54.9713 9.15767 54.4595 9.04383C54.2012 8.98643 53.7936 8.81294 53.0876 8.39345C52.9602 8.32043 51.5156 7.36293 50.5198 7.24444C50.3943 7.22999 50.3394 7.38225 50.1841 7.33646C50.1297 7.32024 50.0764 7.30378 50.0242 7.28714C49.0968 6.99374 48.4844 6.63963 47.4349 6.30924C46.327 5.96172 44.9862 5.56719 43.7698 5.09509C43.5766 5.02032 43.3761 4.92444 43.1799 4.82185C42.5402 4.50745 41.9799 4.0783 41.73 3.90986C41.0965 3.48269 40.3825 3.24024 39.8552 3.03406C39.5317 2.90332 39.318 2.79246 39.1611 2.64177C38.663 2.21453 40.0007 2.17292 38.388 1.57277C38.2367 1.97008 38.016 2.36598 37.8509 2.76591C35.2943 2.34369 32.3495 2.405 29.5043 2.50661C28.5733 2.54788 27.7676 2.63743 26.9304 2.91406C26.7015 2.98508 26.6855 3.04234 26.7031 3.0952C26.71 3.14902 26.7591 3.2031 26.4513 3.28956C26.4241 3.2968 26.3944 3.30397 26.3621 3.31093C24.0376 3.62856 22.9811 3.30164 21.5731 3.71707C21.1849 3.82335 20.709 3.99234 20.1784 4.15588C18.9194 4.56172 17.4188 4.84049 16.0036 4.84866C15.3885 4.86177 14.7884 4.86931 14.2274 4.87715C13.5791 4.5659 12.3858 4.50207 11.3124 4.80587C10.4424 5.0442 9.62543 5.23194 9.05737 5.41981C8.54766 5.59735 8.54253 5.46903 8.22058 5.60358C8.18383 5.62056 8.14979 5.63756 8.11792 5.65461C7.25401 6.1371 7.21913 6.2188 7.2081 6.34288C7.2156 6.44995 7.32017 6.51849 7.1921 6.64377C6.91147 6.9339 6.85197 7.01457 6.71175 7.12188C6.58203 7.22573 6.41995 7.34856 6.26034 7.55168C5.92134 8.17605 5.50208 8.769 5.24549 9.89032C5.1944 10.0292 5.43744 11.6288 5.47328 11.8264C5.5824 13.1524 5.26832 12.0262 5.19279 12.8616C5.12248 13.9292 5.1147 14.7945 5.26454 15.8376C5.34182 16.3681 5.41018 16.9276 5.48353 17.5607C5.56136 18.1614 5.88215 19.6114 5.57812 20.7409C5.53902 20.8895 5.37349 20.7988 5.35796 20.9183C5.28933 21.4701 5.26688 21.8838 5.27744 22.2151C5.30346 23.1975 5.60754 23.498 5.64903 24.4396C5.69117 25.7206 5.13589 27.4628 5.01921 27.8256C5.01688 27.8321 5.01459 27.8385 5.01232 27.8448C4.85594 28.286 4.83514 28.1251 4.85349 27.8342C4.87255 27.5212 4.94846 27.0541 4.93739 27.0256C4.75308 26.5679 4.65734 27.1048 4.59677 27.8172C4.57189 28.1131 4.55011 28.4473 4.52401 28.7494C3.99285 28.867 3.94063 30.3361 4.43506 29.8303C4.48898 29.7727 4.4873 28.956 4.52401 28.7494C4.97944 29.696 4.95844 31.3023 4.38326 33.0586C4.11198 33.8808 3.90006 33.0748 3.84559 35.6174C3.81582 36.7721 4.20519 36.3467 4.22922 37.3818C4.23776 37.8818 4.22198 38.4007 4.15346 38.9962C4.23526 40.4154 4.23462 43.2415 3.99839 45.1277C3.89916 46.0426 4.21363 45.1789 4.14489 45.8088C4.10583 46.1393 4.0532 46.4564 3.98882 46.7716C3.69836 48.1525 3.17875 49.1895 2.93851 50.3468C2.91162 50.4769 3.1913 50.2196 3.08125 50.6545C2.55189 52.7871 2.50124 54.8294 2.70898 57.057C2.82346 58.2463 2.98625 59.4689 3.21396 60.7565C3.4033 61.8334 3.75963 63.4097 4.15057 64.8679C4.43763 65.9829 4.627 66.9792 4.75919 67.7794C4.95476 68.9836 5.10537 70.2923 5.21326 71.6169C5.38417 73.9997 5.04399 75.8745 5.55875 77.2785C5.63926 77.5377 5.70977 77.7875 5.77447 78.0253C6.25701 79.9465 6.33418 79.4619 6.64494 80.1272C6.81865 80.4834 6.96933 80.8442 7.06836 81.0151C7.68117 81.9697 8.52953 83.3302 8.63335 83.6078C8.64002 83.5954 7.53997 82.2965 8.02249 83.0684C8.17686 83.6163 8.61942 83.5918 8.63335 83.6078C8.6668 83.6783 8.86451 83.9675 9.11389 84.3799C9.78921 85.368 10.4635 87.3721 10.5394 87.8961C10.6344 88.2912 10.7859 88.0353 10.8284 88.2461C10.8441 88.3291 10.8586 88.4109 10.8722 88.4942C11.0996 89.6901 11.422 91.2462 11.4906 92.6941C11.6662 95.0242 11.7487 97.6151 12.6119 98.9316C12.7972 99.2308 12.9887 99.4803 13.1886 99.6785C13.2214 99.7137 13.0181 99.8252 13.1025 99.9088C13.5502 100.345 14.0562 100.498 14.6065 100.517C15.9076 100.583 17.2137 100.85 18.3886 101.266C18.4893 101.3 18.5916 101.335 18.6938 101.371C20.2953 101.936 21.5526 102.54 22.4903 103.201C22.2918 103.183 22.5663 103.337 22.7382 103.429C24.0692 103.526 26.4748 103.73 27.7735 103.945C29.0936 104.147 29.3198 103.756 29.4407 103.757C29.8806 103.771 30.2984 103.794 30.7018 103.828C33.6747 104.098 35.4606 104.688 38.5476 104.725C39.1121 104.727 39.8653 104.698 40.6756 104.608C42.3268 104.429 44.2229 104.164 45.057 103.806C45.2509 103.729 45.4179 103.654 45.5768 103.575C46.2472 103.235 46.8071 102.825 47.6394 102.031C47.7822 101.896 47.5085 101.882 47.5491 101.838C48.0971 101.213 48.3994 101.079 48.4946 101.128C48.6013 101.171 48.5712 101.361 48.7613 101.275C49.5109 100.971 50.3454 100.572 51.5828 100.786C52.4195 100.89 53.1069 101.794 53.1349 102.5C53.1966 103.161 53.0984 103.67 52.9841 104.243C52.8941 104.755 52.9675 106.272 52.6496 107.119C52.6462 107.134 52.6419 107.149 52.6368 107.165C52.5446 107.448 52.4605 107.596 52.3796 107.707C52.299 107.83 52.2131 107.956 52.1377 108.462C52.1256 108.552 52.2696 108.551 52.1474 109.199C51.8108 110.886 51.6717 112.796 50.7287 115.044C50.2496 116.093 49.8946 117.542 49.325 119.039C49.278 119.161 49.2312 119.278 49.1856 119.389C48.9969 119.842 49.449 119.372 49.1917 119.993C48.8639 120.774 48.6821 121.335 48.626 121.925C48.5296 123.136 48.1548 124.883 47.1439 126.178C46.5113 127.013 45.9693 127.912 45.5131 128.819C45.2176 129.418 45.2369 128.971 45.1338 129.085C45.0736 129.154 45.0184 129.23 44.9685 129.31C44.5609 129.933 44.6123 131.176 44.5936 131.321C44.5251 131.702 44.4735 132.088 44.4697 132.323C44.4576 132.417 44.5139 132.558 44.437 132.231C44.4052 132.134 44.3661 132 44.2055 131.77C44.0632 131.559 43.716 131.237 43.2956 131.105C42.411 130.868 42.1278 131.138 42.0061 131.167C42.3144 131.024 42.6545 130.668 43.7073 130.131C44.9448 129.603 45.5507 129.384 46.1419 128.892C46.6236 128.631 46.9947 127.328 48.0577 125.648C48.5132 124.978 48.8792 124.06 49.3452 122.911C49.3627 122.869 49.3899 122.782 49.4279 122.661C49.6531 121.92 50.2616 120.065 50.9719 119.409C51.0244 119.36 51.8726 118.588 51.9904 117.687C51.9938 117.639 51.6226 118.018 51.9276 117.331C51.968 117.238 52.0165 117.136 52.0751 117.025C52.6332 115.918 53.7145 114.881 54.6057 114.226C54.9144 114 55.2509 113.714 55.5774 113.442C55.8233 113.246 56.618 112.747 56.7618 111.896C56.8041 111.711 56.843 111.519 56.8781 111.317C56.8443 111.222 57.2974 108.472 58.3064 107.949C58.4847 107.873 58.7227 108.26 59.8152 106.517C59.8251 106.502 59.8334 106.489 59.8404 106.478C59.9564 106.262 59.5403 106.57 60.0293 105.904C60.3639 105.451 60.7697 104.949 61.3389 104.352C61.6323 104.053 61.9555 103.723 62.4792 103.363C62.9677 103.023 63.9165 102.559 65.0115 102.725C65.5202 102.812 65.6746 102.889 65.8258 102.923C65.9659 102.96 66.0606 102.977 66.1553 102.988C66.3485 103.019 67.0528 102.871 67.8446 103.071C67.8693 103.084 67.8997 103.098 67.932 103.113C68.0325 103.152 67.8224 103.34 68.1991 103.341C69.3908 103.306 71.0047 102.94 72.6407 102.767C74.2338 102.656 75.0886 102.863 75.983 102.88C76.7129 102.894 76.367 103.213 77.1091 103.189C77.3531 103.173 77.6685 103.126 77.9833 103.022C78.8223 102.737 79.7298 102.341 80.1697 101.995C80.4994 101.736 80.39 101.621 80.347 101.492C80.2817 101.371 80.3638 101.194 80.6052 100.968C80.6212 100.952 80.6342 100.937 80.6436 100.926C82.0941 99.5947 82.9374 99.2208 83.1778 98.785C84.0668 97.6125 84.7534 97.2231 85.2871 96.7313C85.5494 96.506 85.7656 96.2994 85.8821 96.1618C86.007 96.0234 85.9775 95.9849 85.944 96.1862C86.3468 94.2478 87.3027 93.0927 87.1751 93.1476C87.6613 90.769 88.2182 90.3866 88.2843 89.3986C88.4015 88.4196 88.4759 87.3437 88.5652 86.2644C88.6444 85.3083 88.419 86.0862 88.5309 84.6718C88.642 83.2978 88.7817 81.6758 88.9511 79.9356C89.1264 78.1232 89.3344 76.1467 89.6159 74.244C89.8161 72.7038 90.0983 70.8263 90.5425 69.3269C90.9084 68.038 91.2794 66.8679 91.64 65.9136C93.0262 62.4068 91.7907 66.9829 92.7835 64.2835C92.8595 64.0873 92.9266 63.8839 92.9889 63.6764C93.2714 62.6842 93.1631 61.5716 93.217 61.3214C93.3961 60.452 93.568 59.6494 93.7401 58.8848C94.1535 57.0192 94.6524 55.4319 94.841 53.6307C94.8891 53.1063 94.6177 53.5913 94.6557 53.1519C94.6906 52.7026 94.7188 52.2577 94.729 51.8164C94.7542 50.6248 94.7974 49.4299 94.7741 48.3151C94.7577 47.6003 94.5962 47.7338 94.5974 47.0786C94.595 46.0111 94.6082 44.923 94.6095 44.092C94.6044 43.7293 94.5806 43.3544 94.537 42.9396C94.5225 42.8116 94.9066 43.6015 94.682 42.569C94.5137 41.7856 94.1909 40.799 94.1125 39.4425C94.0753 38.412 93.8617 37.1632 93.6535 35.9314C93.5419 35.2604 93.1513 35.255 93.3201 33.7729C93.3603 33.4671 93.7911 33.8175 93.4014 32.2706C93.3923 32.2348 93.3827 32.1976 93.3727 32.1589C93.2958 31.8765 92.7338 29.1111 93.063 27.7598C93.1487 27.4024 93.5089 26.4905 93.4462 25.706C93.4364 25.5996 93.2387 26.0278 93.2149 25.3768C93.1696 24.0921 93.1534 22.7683 93.1238 21.4602C93.0964 20.4471 93.0756 19.3701 92.9563 18.5501C92.9442 18.4642 92.9289 18.3607 92.9168 18.2946C92.8486 18.1118 92.7334 18.5773 92.6565 17.9707C92.5382 17.0875 92.1916 16.0971 91.7829 14.639C91.3336 12.8139 91.1962 11.1038 90.9678 10.6622C90.9668 10.6595 90.9659 10.657 90.9651 10.6547C90.5406 9.75258 91.0088 10.3084 90.9878 10.2273C90.7864 9.10223 90.2842 9.23316 90.1998 9.17722C90.1013 9.12003 90.0346 9.09691 89.9364 9.06426C88.5378 8.51652 87.561 7.9664 86.517 7.62715C86.2112 7.52811 85.9218 7.4446 85.6123 7.37382C85.1219 7.2648 85.4212 7.54155 85.32 7.53432C84.2683 7.47073 85.1047 7.2952 84.4511 7.12189C83.0399 6.76632 81.3729 6.56333 79.7557 6.42186C79.0752 6.35823 78.5519 6.26153 78.0593 6.19205C77.3258 6.08812 78.1101 6.43715 77.4595 6.34581C76.2683 6.18451 75.0504 6.09127 73.7912 6.03441C71.0631 5.9226 68.1993 5.82461 65.6684 5.84161C65.6119 5.84264 65.5566 5.84371 65.5025 5.84482C64.7896 5.86276 65.2274 5.66212 65.0756 5.63134C64.0629 5.41493 62.458 5.98285 62.047 6.03221C61.2085 6.16491 60.6208 6.18452 60.0691 6.18295C59.4577 6.17949 58.9031 6.14592 58.1171 6.16245C56.0019 6.21128 53.7076 6.20023 51.5364 6.29195C49.9807 6.31486 48.3685 6.75409 46.0259 6.40783C44.6357 6.16855 42.8989 6.11486 41.1138 5.72898C39.009 5.24677 37.1534 4.78001 35.6032 4.63778C35.4622 4.62616 35.3241 4.61336 35.189 4.59985C32.8258 4.30835 30.9279 4.16693 28.8484 4.11899C25.0911 4.03224 21.507 3.97594 17.8764 4.03322C16.6864 4.07054 15.7732 4.06074 14.5046 4.30556C13.9059 4.36899 13.1904 4.65773 12.3296 5.11095C11.8748 5.34924 12.446 5.31457 12.0478 5.52808C11.9457 5.58272 11.8412 5.63863 11.734 5.69543C10.6986 6.29573 9.18505 7.55952 8.16526 8.61436C7.04445 9.79518 5.93206 10.9183 5.5633 11.7834C4.39282 14.0434 4.16224 15.5229 4.09074 17.9508C4.08101 18.4164 4.32014 17.7555 4.31639 18.4952C4.31639 18.5076 4.3164 18.5202 4.31641 18.5328C4.31691 20.1141 4.2899 22.1387 4.21505 23.7519C4.17889 24.5469 3.99263 23.4801 3.96034 24.2796C3.8855 26.1416 3.87478 28.1405 3.92889 30.0488C3.95298 30.8612 4.16505 29.6331 4.17942 30.6879C4.18857 31.2919 4.19956 31.8958 4.21376 32.4894C4.2334 34.4878 4.44737 36.1337 4.51916 38.4413C4.56083 41.7555 4.72249 45.0034 4.84141 48.4579C4.86911 49.6437 4.93048 50.962 4.92508 52.2605C4.92368 52.777 4.48272 53.2399 4.58887 54.32C4.62398 54.342 4.66066 54.3576 4.69822 54.3692C4.79802 54.3989 4.90403 54.402 5.00315 54.4261C5.06441 57.3289 5.05457 60.2136 5.12936 63.003C5.14415 64.4083 5.39594 65.8191 5.40846 67.5433C5.51141 71.1577 5.37586 74.7507 6.38014 77.9C6.25481 78.1941 8.04473 79.5728 8.64377 82.0045C8.83035 82.8507 9.06471 83.6916 9.31364 84.6156C9.43224 85.0645 9.46024 84.2187 9.69092 85.1008C9.88565 85.8584 10.0646 86.682 10.1721 87.5187C10.4034 89.4081 10.4669 91.1002 10.6842 92.6384C10.9031 94.1586 11.1324 95.7259 11.2897 97.3509C11.356 98.1192 11.5199 98.9457 11.7173 99.4429C11.7606 99.5523 11.6935 99.6191 11.6468 99.7191C11.5763 99.8022 11.6532 99.9872 11.5089 99.8951C11.6412 99.9692 11.7818 100.05 11.9301 100.136C12.0663 100.208 12.6121 100.572 13.0656 100.852C13.5324 101.142 13.9268 101.286 14.1125 101.296C14.1653 101.307 14.2116 101.315 14.2506 101.321C14.3302 101.331 13.9987 101.018 14.6908 101.229C16.0423 101.644 17.41 102.067 18.8002 102.516C20.7103 103.16 22.0192 104.124 23.0237 104.404C23.6072 104.603 25.1421 104.625 26.3905 104.75C27.0855 104.814 26.3309 104.978 26.8232 105.027C28.6365 105.207 30.4985 105.401 32.3402 105.653C33.8993 105.866 35.456 105.886 36.9036 105.807C38.8925 105.638 38.2288 106.101 39.385 106.187C39.5577 106.21 40.754 105.782 40.8929 105.927C41.2859 106.332 40.8851 107.137 41.3664 107.543C41.4703 107.691 43.3248 106.478 42.3323 107.391C42.2609 107.487 40.8891 108.195 40.5641 108.376C40.3373 108.521 40.8526 108.583 40.3681 108.827C39.8768 109.065 39.2731 109.041 38.4488 109.296C37.6171 109.53 38.0268 109.758 36.3068 109.935ZM33.6193 105.121C34.7714 105.482 35.0311 104.76 33.7467 104.771C33.6845 104.772 33.5602 105.103 33.6193 105.121ZM30.4576 1.86587C30.0843 1.8065 29.7663 1.78959 29.467 1.80306C28.5219 1.85168 28.1709 2.24402 28.9759 2.35805C29.1576 2.38736 29.332 2.39555 29.498 2.38827C30.3268 2.35168 30.855 1.93191 30.4576 1.86587ZM46.0179 4.79609C44.3738 3.93106 43.7579 4.84051 45.6698 5.29328C45.7814 5.32068 46.1134 4.84675 46.0179 4.79609ZM34.26 106.879C34.2747 106.895 35.2217 106.909 35.2432 106.894C35.7351 106.657 33.8701 106.634 34.26 106.879ZM61.6085 9.40345C61.5416 9.3747 61.4576 9.34745 61.362 9.32167C60.6902 9.14184 59.4788 9.05023 60.0679 9.32583C60.3435 9.45441 60.9144 9.55394 61.3174 9.57535C61.7169 9.59769 61.9413 9.5452 61.6085 9.40345ZM50.0857 125.918C50.1083 125.909 50.4277 125.291 50.3616 125.275C50.1643 125.236 49.7778 126.103 50.0857 125.918ZM88.7536 6.15895C84.7323 6.07125 82.1296 5.52881 86.638 5.34381C87.4488 5.33377 84.9009 5.68876 85.9355 5.72654C87.5727 5.80237 88.6657 5.35295 90.2973 5.62864C90.5463 5.70288 90.791 5.80415 91.0254 5.92537C91.1693 6.00329 90.7456 5.97271 90.2222 5.97019C89.6107 6.01652 88.876 6.16986 88.7465 6.15997C88.7488 6.15963 88.7512 6.15929 88.7536 6.15895ZM34.183 106.103C34.2053 106.118 35.1671 106.239 35.1905 106.229C35.7331 106.052 33.8083 105.812 34.183 106.103ZM79.1837 104.628C79.2463 104.654 81.3424 103.715 81.3858 103.611C81.8022 103.126 81.0181 103.514 80.2292 103.863C79.4407 104.223 78.6407 104.622 79.1837 104.628ZM1.17135 61.0144C0.749144 60.008 0.53283 58.7366 0.728114 57.8559C0.842555 58.9099 1.00089 59.9635 1.17135 61.0144Z" fill="white"/>
</svg>
