<svg width="94" height="118" viewBox="0 0 94 118" fill="none" xmlns="http://www.w3.org/2000/svg">
<path d="M20.527 3.83039C21.608 3.83039 23.79 3.91334 27.2403 4.03904C30.1911 4.14653 35.585 4.08177 38.6946 4.12325C42.4696 4.1736 44.8938 4.33316 48.197 4.2502C52.9677 4.13039 54.2101 3.66447 57.864 3.41309C61.262 3.1793 67.8226 3.32762 71.8623 3.41057C78.9451 3.55602 80.1002 4.08177 81.9831 4.49907C83.4282 4.81936 84.6251 4.83593 86.0065 5.04457C87.0485 5.08731 88.0616 5.17027 88.8974 5.29596C89.3185 5.33869 89.7333 5.33869 90.6634 5.84146" stroke="white" stroke-width="6" stroke-linecap="round"/>
<path d="M20.7784 3.83039C20.7784 4.33065 20.4466 5.99733 19.6497 8.18061C18.9367 10.134 18.2646 12.8752 18.0144 14.1321C17.5441 16.4956 16.7563 19.9944 16.2573 22.1274C14.8714 28.0513 13.6592 31.4727 13.2796 33.6949C12.8565 36.1721 11.6481 39.6779 11.3113 42.1578C10.8886 45.2697 9.63704 47.8127 9.13302 49.6591C8.53205 51.8606 8.12873 54.8414 7.83336 57.8668C7.35413 62.7754 6.44948 66.923 5.61489 69.599C5.19507 71.2795 4.52388 73.2051 4.14806 74.3363C3.93815 74.7209 3.68928 74.7209 3.18148 74.9723" stroke="white" stroke-width="6" stroke-linecap="round"/>
<path d="M89.9093 5.3387C90.0752 5.50461 90.2436 5.92191 90.3278 14.2641C90.4087 22.2741 90.2461 37.9534 90.1204 46.1963C89.9896 54.775 89.5749 55.8595 89.4492 57.5714C89.2935 59.6929 89.3235 61.4755 89.1564 64.2633C88.7957 70.278 88.7378 74.467 88.4449 75.0515C87.6095 76.7188 87.9837 78.904 87.6078 79.9548C86.933 81.8416 83.8006 79.8341 80.1631 78.8311C76.5909 78.0744 74.253 77.7375 70.618 77.5289C68.4963 77.4862 64.6803 77.4862 60.7486 77.4862" stroke="white" stroke-width="6" stroke-linecap="round"/>
<path d="M3.18148 74.9723C4.01356 75.2237 5.60734 75.3896 8.72452 75.6825C11.4269 75.8094 16.4043 75.8924 19.0929 75.8936C21.7814 75.8949 22.0303 75.8119 22.5381 75.4751" stroke="white" stroke-width="6" stroke-linecap="round"/>
<path d="M60.2458 78.2403C60.2458 78.4062 60.2458 79.0724 60.2044 80.2011C60.0799 81.2469 59.7456 82.4233 59.2441 83.5948C58.9914 84.1026 58.7426 84.4344 58.4862 84.7763" stroke="white" stroke-width="6" stroke-linecap="round"/>
<path d="M58.9889 86.0332C60.1528 87.1167 65.6556 91.4481 68.0375 93.6137C69.4597 94.9068 62.9382 95.4979 58.1518 97.661C54.4161 99.3494 48.1392 102.479 44.8083 104.184C40.7305 106.273 39.7228 107.064 38.589 107.608C37.3688 108.194 35.7861 108.321 34.6084 108.865C33.6016 109.327 32.5985 109.995 31.3416 110.749C31.0048 111.001 30.6729 111.333 30.0797 111.926" stroke="white" stroke-width="6" stroke-linecap="round"/>
<path d="M38.6267 75.7265C38.7927 75.8094 38.9586 75.8924 39.0855 76.0595C40.1594 77.4736 37.8877 82.6546 36.4925 85.3558C35.9912 86.3262 36.2813 87.3706 35.9897 88.2467C35.8056 88.7997 35.4492 89.5375 37.7255 89.9222C40.0018 90.3068 44.8963 90.3068 47.2932 90.4727C49.6902 90.6386 49.4413 90.9704 48.0273 92.2198C44.0983 95.6913 41.1431 98.0142 40.3512 98.6804C38.8888 99.9107 37.3774 101.363 35.7069 102.78C33.7046 105.028 31.8469 107.723 30.5912 109.9C30.0822 110.749 29.8333 111.081 29.3255 111.926" stroke="white" stroke-width="6" stroke-linecap="round"/>
<path d="M20.7784 75.9778C21.9423 75.7265 24.2928 75.8924 28.8868 75.8949C32.4175 75.4751 34.5996 75.3092 35.6855 75.0578C36.2738 74.9723 36.9374 74.9723 37.6212 74.9723" stroke="white" stroke-width="6" stroke-linecap="round"/>
<path d="M23.0409 116.954C23.2068 116.202 24.0414 115.033 25.0482 113.732C25.972 112.683 26.8896 111.597 27.9768 110.385C28.4834 109.754 28.8982 109.09 29.3255 108.406" stroke="white" stroke-linecap="round"/>
<path d="M23.2923 117.205C24.876 116.285 27.2239 115.616 29.7767 114.361C30.3285 114.105 30.5774 114.022 30.913 113.772C31.2486 113.522 31.6634 113.107 32.3421 112.68" stroke="white" stroke-linecap="round"/>
<path d="M28.5714 113.686C27.8197 114.02 26.8167 114.52 25.8099 115.317C25.5877 115.493 25.3084 115.445 25.3046 115.279C25.2761 114.025 26.8091 113.854 27.0618 113.77C27.8406 113.51 25.3084 114.937 24.5505 115.528C23.8009 116.112 26.3039 114.274 27.102 113.479C27.5229 113.061 28.0661 112.683 28.3602 112.43C28.5674 112.252 27.7368 113.18 27.1095 113.599C26.6104 113.932 25.9771 113.937 25.5987 113.854C24.5903 113.633 26.8946 112.097 27.0618 111.718C27.1007 111.63 27.229 111.921 27.1473 112.132C27.0656 112.343 26.8167 112.509 26.8544 112.678C26.9633 113.164 27.9806 113.183 28.4017 113.183C29.5811 113.183 26.2284 114.017 25.8916 114.437C25.0249 115.517 28.3175 112.514 28.5701 112.304C28.761 112.146 27.5708 112.76 26.7752 113.388C26.2535 113.799 26.2259 114.603 25.9758 115.315C25.8086 115.611 25.5598 115.777 25.1412 115.863C24.7227 115.948 24.142 115.948 23.5437 115.948" stroke="white" stroke-linecap="round"/>
<path d="M32.0907 112.177C32.2567 112.177 32.591 112.177 33.0925 112.094C33.3452 112.011 33.594 111.845 33.8052 111.636C34.0163 111.426 34.1823 111.177 34.3532 110.669" stroke="white" stroke-linecap="round"/>
<path d="M32.8449 113.434C34.4336 112.597 35.771 111.931 36.8633 110.715C37.3648 110.171 37.7871 109.5 38.1629 108.789C38.3728 108.492 38.6217 108.326 38.8781 108.155" stroke="white" stroke-linecap="round"/>
</svg>
